<?xml version="1.0" encoding="UTF-8"?>
<svg version="1.1" xmlns="http://www.w3.org/2000/svg" width="1024" height="1024">
<path d="M0 0 C337.92 0 675.84 0 1024 0 C1024 337.92 1024 675.84 1024 1024 C686.08 1024 348.16 1024 0 1024 C0 686.08 0 348.16 0 0 Z " fill="#E2F0F9" transform="translate(0,0)"/>
<path d="M0 0 C26.07 0 52.14 0 79 0 C83.95 10.89 88.9 21.78 94 33 C97.53697312 40.5742937 97.53697312 40.5742937 101.1105957 48.13061523 C106.69428412 59.86663011 112.14846172 71.65650969 117.5 83.5 C122.61430018 94.81613561 127.82267314 106.08320294 133.125 117.3125 C133.45994476 118.02186707 133.79488953 118.73123413 134.13998413 119.46209717 C134.81027077 120.88147762 135.48057399 122.30085023 136.15089417 123.72021484 C136.64274452 124.76169678 136.64274452 124.76169678 137.14453125 125.82421875 C137.46989365 126.51306152 137.79525604 127.2019043 138.13047791 127.91162109 C147.23695225 147.20448365 156.13528404 166.59513406 165 186 C167.35213455 183.06818031 168.98175719 180.16640935 170.5390625 176.75 C171.02793945 175.68587891 171.51681641 174.62175781 172.02050781 173.52539062 C172.54999023 172.36201172 173.07947266 171.19863281 173.625 170 C174.79690171 167.44672869 175.97271914 164.89526567 177.1484375 162.34375 C177.4578125 161.67130249 177.7671875 160.99885498 178.0859375 160.30603027 C181.75295455 152.3450636 185.50119857 144.4226915 189.25 136.5 C189.96993612 134.97723567 190.68982512 133.45444905 191.40966797 131.93164062 C193.97318873 126.50949588 196.53860764 121.08824975 199.10400391 115.66699219 C201.65376774 110.27851386 204.20264972 104.88961978 206.75 99.5 C207.10637543 98.74599915 207.46275085 97.99199829 207.82992554 97.21514893 C212.96779063 86.34096302 218.05969359 75.44672294 223.109375 64.53125 C226.0650438 58.14818472 229.04153399 51.77571418 232.04296875 45.4140625 C232.39198746 44.67404999 232.74100616 43.93403748 233.1006012 43.17160034 C234.79177453 39.58696475 236.48512951 36.00338337 238.18188477 32.42138672 C243.25982278 21.66925995 248.11766119 10.84964181 253 0 C277.09 0 301.18 0 326 0 C326 104.28 326 208.56 326 316 C305.87 316 285.74 316 265 316 C264.67 246.37 264.34 176.74 264 105 C255.62090319 122.31680008 247.30329544 139.58343584 239.24609375 157.0390625 C235.90965063 164.23133423 232.46335107 171.36837359 229 178.5 C224.51807931 187.73184739 220.11334165 196.99446243 215.8125 206.3125 C203.80177842 232.32947255 191.38244106 258.15838387 179 284 C168.44 284 157.88 284 147 284 C138.84239847 267.28686516 130.7292749 250.56201875 122.93676758 233.67480469 C118.66985251 224.42818722 114.34412793 215.21054359 110 206 C105.17418272 195.76556552 100.37521499 185.51982041 95.625 175.25 C87.53787875 157.77613304 79.2568395 140.3941126 71 123 C68.03 116.73 65.06 110.46 62 104 C61.67 173.96 61.34 243.92 61 316 C40.87 316 20.74 316 0 316 C0 211.72 0 107.44 0 0 Z " fill="#032154" transform="translate(232,305)"/>
<path d="M0 0 C159.16934851 0 159.16934851 0 192.375 32 C212.31501613 52.77621036 218.67675199 79.57176014 218.1796875 107.66796875 C217.36306472 136.23464344 205.71255358 160.25932918 185.125 179.8125 C172.14709955 191.00670797 156.51915335 197.96130993 140 202 C138.89374268 202.27279785 137.78748535 202.5455957 136.64770508 202.82666016 C122.02324809 205.8972447 107.31441722 205.32639111 92.4375 205.1875 C78.3609375 205.0946875 78.3609375 205.0946875 64 205 C64 241.63 64 278.26 64 316 C42.88 316 21.76 316 0 316 C0 211.72 0 107.44 0 0 Z " fill="#032153" transform="translate(602,305)"/>
<path d="M0 0 C184.8 0 369.6 0 560 0 C560 7.26 560 14.52 560 22 C375.2 22 190.4 22 0 22 C0 14.74 0 7.48 0 0 Z " fill="#1A6D84" transform="translate(232,674)"/>
<path d="M0 0 C7.96125 -0.061875 15.9225 -0.12375 24.125 -0.1875 C26.60789551 -0.21481201 29.09079102 -0.24212402 31.64892578 -0.27026367 C50.10235079 -0.38915744 66.83287069 0.48624065 80.9609375 13.765625 C90.50704849 24.22611443 93.30785465 36.94018168 93.15234375 50.74609375 C92.44978833 65.75195686 88.27795062 77.21433374 77.375 87.6875 C66.92196578 96.45843676 53.7578053 98.31709012 40.625 98.1953125 C39.07425781 98.19229126 39.07425781 98.19229126 37.4921875 98.18920898 C33.66141265 98.17881149 29.83070147 98.15088931 26 98.125 C17.42 98.08375 8.84 98.0425 0 98 C0 65.66 0 33.32 0 0 Z " fill="#DBEEF7" transform="translate(666,358)"/>
<path d="M0 0 C184.8 0 369.6 0 560 0 C560 7.26 560 14.52 560 22 C375.2 22 190.4 22 0 22 C0 14.74 0 7.48 0 0 Z M1 2 C1.33 7.94 1.66 13.88 2 20 C185.48 20 368.96 20 558 20 C558 14.06 558 8.12 558 2 C374.19 2 190.38 2 1 2 Z " fill="#086078" transform="translate(232,674)"/>
<path d="M0 0 C24.09 0 48.18 0 73 0 C73 104.28 73 208.56 73 316 C53.2 316 33.4 316 13 316 C13 245.05 13 174.1 13 101 C13.33 101 13.66 101 14 101 C14 171.62 14 242.24 14 315 C32.81 315 51.62 315 71 315 C71 211.71 71 108.42 71 2 C47.9 2 24.8 2 1 2 C0.34 3.98 -0.32 5.96 -1 8 C-2.625 10.375 -2.625 10.375 -4 12 C-3.30460534 7.41039525 -1.949627 4.54912967 0 0 Z " fill="#0E1E4C" transform="translate(485,305)"/>
<path d="M0 0 C0.33 0 0.66 0 1 0 C1 104.28 1 208.56 1 316 C22.12 316 43.24 316 65 316 C65 280.03 65 244.06 65 207 C65.33 207 65.66 207 66 207 C66 243.96 66 280.92 66 319 C3 319 3 319 -1 317 C-1.02287147 277.0493225 -1.04050083 237.09864585 -1.05106533 197.14796312 C-1.05231609 192.43514923 -1.05361041 187.72233535 -1.05493164 183.00952148 C-1.05519395 182.07125538 -1.05545626 181.13298927 -1.05572652 180.16629086 C-1.06008196 164.95904533 -1.06796882 149.75180357 -1.0771528 134.54456028 C-1.08649283 118.94924489 -1.09205635 103.35393148 -1.09408849 87.75861341 C-1.09546299 78.12966462 -1.09980965 68.50072648 -1.10791647 58.87178097 C-1.11318823 52.27558268 -1.11480331 45.67938993 -1.11350138 39.08318969 C-1.11285868 35.27328441 -1.11386792 31.46339778 -1.11920547 27.65349579 C-1.12494117 23.52945746 -1.12299711 19.40545923 -1.12025452 15.28141785 C-1.12462378 13.46188899 -1.12462378 13.46188899 -1.12908131 11.60560197 C-1.12709026 10.50584261 -1.12509921 9.40608325 -1.12304783 8.27299786 C-1.12342755 7.32027955 -1.12380727 6.36756124 -1.1241985 5.38597268 C-1 3 -1 3 0 0 Z " fill="#F7FDFE" transform="translate(601,305)"/>
<path d="M0 0 C0.33 0 0.66 0 1 0 C1.02286475 40.36690334 1.0404974 80.73380584 1.05106533 121.10071435 C1.05231611 125.8611696 1.05361042 130.62162484 1.05493164 135.38208008 C1.05519395 136.32984265 1.05545626 137.27760522 1.05572652 138.25408787 C1.06008356 153.62111441 1.0679713 168.98813722 1.0771528 184.35516154 C1.08648839 200.11092903 1.09205541 215.86669457 1.09408849 231.62246472 C1.09546392 241.35276049 1.09981556 251.08304575 1.10791647 260.81333829 C1.11318276 267.47633419 1.11480456 274.13932461 1.11350138 280.80232244 C1.11285781 284.65248516 1.11387756 288.50262944 1.11920547 292.35278893 C1.12492616 296.51693808 1.12300125 300.68104743 1.12025452 304.84519958 C1.12316736 306.07571735 1.1260802 307.30623512 1.12908131 308.57404131 C1.12709026 309.68026875 1.12509921 310.7864962 1.12304783 311.92624569 C1.12342755 312.88883673 1.12380727 313.85142776 1.1241985 314.84318823 C1 317 1 317 0 318 C-2.196308 318.14691277 -4.39709403 318.22760211 -6.59765625 318.28125 C-7.26534531 318.29965942 -7.93303436 318.31806885 -8.62095642 318.33703613 C-10.7680455 318.39593715 -12.91521952 318.44858252 -15.0625 318.5 C-27.06648197 318.7635879 -27.06648197 318.7635879 -39 320 C-39.99 320 -40.98 320 -42 320 C-43.423125 320.0928125 -43.423125 320.0928125 -44.875 320.1875 C-48.64749249 320.21331126 -52.0983551 319.36078017 -55.7578125 318.48828125 C-57.51182373 318.07316284 -57.51182373 318.07316284 -59.30126953 317.6496582 C-60.19185059 317.435271 -61.08243164 317.22088379 -62 317 C-62.00634791 315.40391419 -62.00634791 315.40391419 -62.01282406 313.77558422 C-62.11591033 287.91272734 -62.22464486 262.04989895 -62.33933926 236.18709087 C-62.39467259 223.68015676 -62.44815478 211.17321979 -62.49731445 198.66625977 C-62.54015492 187.76818442 -62.58643258 176.8701301 -62.63687855 165.9720872 C-62.66348057 160.19898024 -62.68833371 154.42587745 -62.70907402 148.6527462 C-62.72863392 143.22327952 -62.75277581 137.79385284 -62.78049088 132.36442184 C-62.78986473 130.36773084 -62.7975388 128.37103105 -62.80341911 126.37432671 C-62.81167458 123.65593503 -62.82594975 120.93764059 -62.84178162 118.21928406 C-62.84275972 117.42259628 -62.84373783 116.62590851 -62.84474558 115.80507869 C-62.86882103 112.60772741 -62.98145103 110.05564692 -64 107 C-63.01 105.68 -62.02 104.36 -61 103 C-61 173.29 -61 243.58 -61 316 C-40.87 316 -20.74 316 0 316 C0 211.72 0 107.44 0 0 Z " fill="#FBFDFE" transform="translate(558,305)"/>
<path d="M0 0 C0.33 0 0.66 0 1 0 C1 104.28 1 208.56 1 316 C21.46 316 41.92 316 63 316 C63 247.69 63 179.38 63 109 C63.33 109 63.66 109 64 109 C64.02332556 136.10255946 64.04097749 163.20511743 64.05181217 190.3076849 C64.05697586 202.89091769 64.06401994 215.47414425 64.07543945 228.05737305 C64.08538407 239.02060101 64.0918529 249.98382448 64.09408849 260.94705683 C64.09539598 266.75588289 64.09848421 272.56469605 64.10573006 278.37351799 C64.11248678 283.83414752 64.11461768 289.29475876 64.11310768 294.75539207 C64.11338417 296.765832 64.11539134 298.7762725 64.11920547 300.78670883 C64.12413729 303.51891585 64.12300019 306.25105267 64.12025452 308.98326111 C64.12316736 309.78966551 64.1260802 310.59606992 64.12908131 311.42691082 C64.11412121 316.88587879 64.11412121 316.88587879 63 318 C61.31951749 318.12826028 59.63378145 318.1883989 57.94873047 318.22119141 C56.33102249 318.25595078 56.33102249 318.25595078 54.68063354 318.29141235 C53.50469635 318.3112619 52.32875916 318.33111145 51.1171875 318.3515625 C49.31303879 318.38629166 49.31303879 318.38629166 47.47244263 318.42172241 C44.91852193 318.4694664 42.36455303 318.51468733 39.81054688 318.55761719 C35.91257156 318.62435672 32.01493124 318.70224835 28.1171875 318.78125 C25.63803304 318.82619947 23.15886656 318.87049129 20.6796875 318.9140625 C19.51589569 318.93796051 18.35210388 318.96185852 17.15304565 318.98648071 C11.6565934 319.07097012 6.39804281 319.10663208 1 318 C0 317 0 317 -0.1241985 314.84318823 C-0.12381878 313.88059719 -0.12343906 312.91800615 -0.12304783 311.92624569 C-0.12503888 310.82001824 -0.12702993 309.7137908 -0.12908131 308.57404131 C-0.12616847 307.34352354 -0.12325563 306.11300577 -0.12025452 304.84519958 C-0.12153615 302.9021888 -0.12153615 302.9021888 -0.12284368 300.91992527 C-0.12509109 297.30787469 -0.12106403 293.69585347 -0.11606562 290.08380663 C-0.11176481 286.19489898 -0.11320728 282.3059931 -0.1139679 278.41708374 C-0.11449337 271.6737726 -0.11134417 264.93047111 -0.10573006 258.1871624 C-0.09761817 248.43735635 -0.09500016 238.68755499 -0.09374207 228.93774594 C-0.09155106 213.12101092 -0.08488964 197.30428105 -0.07543945 181.48754883 C-0.0662666 166.11905951 -0.05918515 150.75057158 -0.05493164 135.38208008 C-0.05466892 134.4354652 -0.05440619 133.48885033 -0.05413551 132.51355015 C-0.05283051 127.76487021 -0.0515668 123.01619026 -0.05032361 118.26751029 C-0.03994947 78.84500326 -0.02232982 39.42250197 0 0 Z " fill="#FAFCFD" transform="translate(231,305)"/>
<path d="M0 0 C0.33 0.66 0.66 1.32 1 2 C0.0355414 4.34824702 -0.96514123 6.68191636 -2 9 C-2 9.66 -2 10.32 -2 11 C-2.66 11 -3.32 11 -4 11 C-4.4021875 12.299375 -4.4021875 12.299375 -4.8125 13.625 C-5.97111987 16.91791964 -7.38209839 19.91127875 -9 23 C-10.20007901 19.39976297 -9.76471259 18.88123214 -8.1640625 15.5859375 C-7.75929688 14.74289062 -7.35453125 13.89984375 -6.9375 13.03125 C-6.504375 12.1546875 -6.07125 11.278125 -5.625 10.375 C-5.19960938 9.49070312 -4.77421875 8.60640625 -4.3359375 7.6953125 C-1.1765253 1.1765253 -1.1765253 1.1765253 0 0 Z " fill="#091441" transform="translate(469,341)"/>
<path d="M0 0 C0.33 0 0.66 0 1 0 C1.33 2.97 1.66 5.94 2 9 C1.01 9.495 1.01 9.495 0 10 C-0.65555119 12.52733235 -0.65555119 12.52733235 -1 15 C-1.66 15 -2.32 15 -3 15 C-2.88529863 13.24929483 -2.75780972 11.49942464 -2.625 9.75 C-2.55539062 8.77546875 -2.48578125 7.8009375 -2.4140625 6.796875 C-2.01534751 4.10366811 -1.36492937 2.33036721 0 0 Z " fill="#D7E7EF" transform="translate(821,414)"/>
<path d="M0 0 C1.32 1.32 2.64 2.64 4 4 C3.21625 4.226875 2.4325 4.45375 1.625 4.6875 C-1.21535469 5.76670768 -1.21535469 5.76670768 -2.1875 8.5625 C-2.455625 9.366875 -2.72375 10.17125 -3 11 C-3.99 11.495 -3.99 11.495 -5 12 C-3.68938409 7.76570244 -2.05643741 3.92592596 0 0 Z " fill="#DDE8F1" transform="translate(475,452)"/>
<path d="M0 0 C1.32 0.66 2.64 1.32 4 2 C2.52307692 7.66153846 2.52307692 7.66153846 -0.125 9.375 C-0.74375 9.58125 -1.3625 9.7875 -2 10 C-1.67 8.35 -1.34 6.7 -1 5 C-0.34 5 0.32 5 1 5 C0.67 3.35 0.34 1.7 0 0 Z " fill="#D2E7F3" transform="translate(466,336)"/>
<path d="M0 0 C3 2 3 2 3.73046875 4.1640625 C3.88128906 4.97617187 4.03210938 5.78828125 4.1875 6.625 C4.34605469 7.44226563 4.50460937 8.25953125 4.66796875 9.1015625 C4.83232422 10.04128906 4.83232422 10.04128906 5 11 C4.01 11.495 4.01 11.495 3 12 C0.60926555 8.17482487 0.44033448 4.40334476 0 0 Z " fill="#D9EAF3" transform="translate(347,380)"/>
<path d="M0 0 C1.15957207 3.47871621 0.77456651 4.34219645 -0.4375 7.6875 C-0.86869141 8.89986328 -0.86869141 8.89986328 -1.30859375 10.13671875 C-1.53675781 10.75160156 -1.76492188 11.36648438 -2 12 C-3.1171875 10.265625 -3.1171875 10.265625 -4 8 C-3.3203125 5.859375 -3.3203125 5.859375 -2.125 3.75 C-1.73570312 3.04359375 -1.34640625 2.3371875 -0.9453125 1.609375 C-0.63335937 1.07828125 -0.32140625 0.5471875 0 0 Z " fill="#DBE8EF" transform="translate(484,433)"/>
<path d="M0 0 C0.99 0 1.98 0 3 0 C3.66 1.98 4.32 3.96 5 6 C4.34 6.66 3.68 7.32 3 8 C0 2.25 0 2.25 0 0 Z " fill="#D6E5ED" transform="translate(359,410)"/>
<path d="M0 0 C0.66 0 1.32 0 2 0 C0.125 5.75 0.125 5.75 -1 8 C-1.99 8 -2.98 8 -4 8 C-3.67 6.68 -3.34 5.36 -3 4 C-2.34 4 -1.68 4 -1 4 C-0.67 2.68 -0.34 1.36 0 0 Z " fill="#D8E5EE" transform="translate(439,400)"/>
<path d="M0 0 C1.2077558 3.62326739 0.54311128 4.64146369 -1 8 C-1.99 8 -2.98 8 -4 8 C-2.68 5.36 -1.36 2.72 0 0 Z " fill="#F2F8FA" transform="translate(417,576)"/>
<path d="M0 0 C0.99 0.33 1.98 0.66 3 1 C1.515 4.465 1.515 4.465 0 8 C-0.33 8 -0.66 8 -1 8 C-1.04241723 5.66705225 -1.04092937 3.33297433 -1 1 C-0.67 0.67 -0.34 0.34 0 0 Z " fill="#D4E4ED" transform="translate(447,381)"/>
<path d="M0 0 C0.66 0.33 1.32 0.66 2 1 C1.25 5.75 1.25 5.75 -1 8 C-1.93065133 5.39417629 -2.14917407 4.35801776 -1.0625 1.75 C-0.711875 1.1725 -0.36125 0.595 0 0 Z " fill="#D6E7F0" transform="translate(453,368)"/>
<path d="M0 0 C1.74627478 2.61941217 2.38722388 4.03824877 3 7 C2.01 7 1.02 7 0 7 C-0.66 5.35 -1.32 3.7 -2 2 C-1.34 2 -0.68 2 0 2 C0 1.34 0 0.68 0 0 Z " fill="#D4E7F1" transform="translate(325,331)"/>
<path d="M0 0 C0.66 1.32 1.32 2.64 2 4 C1.01 4.33 0.02 4.66 -1 5 C-3.1875 3.5625 -3.1875 3.5625 -5 2 C-2 0 -2 0 0 0 Z " fill="#D5E9F2" transform="translate(770,314)"/>
<path d="M0 0 C2.0625 0.4375 2.0625 0.4375 4 1 C2.68 2.65 1.36 4.3 0 6 C-0.38218767 4.34385343 -0.71395102 2.67542976 -1 1 C-0.67 0.67 -0.34 0.34 0 0 Z " fill="#CFE5F0" transform="translate(312,304)"/>
</svg>
